<?xml version="1.0" standalone="no"?>
<!DOCTYPE svg PUBLIC "-//W3C//DTD SVG 20010904//EN"
 "http://www.w3.org/TR/2001/REC-SVG-20010904/DTD/svg10.dtd">
<svg version="1.0" xmlns="http://www.w3.org/2000/svg"
 width="512.000000pt" height="512.000000pt" viewBox="0 0 512.000000 512.000000"
 preserveAspectRatio="xMidYMid meet">

<g transform="translate(0.000000,512.000000) scale(0.100000,-0.100000)"
fill="#000000" stroke="none">
<path d="M2395 5109 c-112 -11 -262 -41 -346 -69 -200 -66 -357 -180 -395
-288 l-19 -52 -130 0 c-116 0 -134 -3 -170 -23 -56 -32 -82 -75 -91 -154 -10
-100 0 -242 21 -287 23 -48 77 -84 140 -92 42 -6 60 -16 116 -66 l67 -58 243
0 244 0 67 60 66 60 399 0 398 0 -773 -773 -772 -772 0 -389 0 -388 1105 1098
1105 1097 0 62 0 62 48 7 c60 8 114 44 137 93 21 44 31 187 21 286 -9 79 -35
122 -91 154 -35 20 -54 23 -155 23 l-116 0 -12 46 c-28 105 -207 234 -412 299
-185 58 -488 86 -695 64z"/>
<path d="M3347 2892 l-307 -307 2 -385 3 -385 308 305 307 305 -2 388 -3 387
-308 -308z"/>
<path d="M3335 1300 l-320 -320 -399 0 -400 0 37 38 c20 21 37 40 37 42 0 3
-174 4 -387 2 l-387 -2 -28 -27 c-15 -15 -28 -32 -28 -38 0 -7 -22 -15 -52
-18 -64 -8 -119 -43 -144 -94 -16 -32 -19 -61 -19 -188 0 -169 7 -193 72 -242
35 -27 41 -28 178 -31 l141 -3 18 -52 c49 -139 269 -269 552 -326 472 -96 993
-2 1216 220 52 51 70 77 80 112 l12 45 126 4 c121 3 128 4 163 31 65 49 72 73
72 242 0 127 -3 156 -19 188 -24 49 -78 85 -138 93 -47 6 -48 7 -49 43 -1 20
-5 163 -8 319 l-6 282 -320 -320z"/>
</g>
</svg>
